<?xml version="1.0" encoding="utf-8"?>
<!-- Generator: Adobe Illustrator 20.1.0, SVG Export Plug-In . SVG Version: 6.00 Build 0)  -->
<svg version="1.1" id="Layer_1" xmlns="http://www.w3.org/2000/svg" xmlns:xlink="http://www.w3.org/1999/xlink" x="0px" y="0px"
	 viewBox="0 0 179.6 55.5" style="enable-background:new 0 0 179.6 55.5;" xml:space="preserve">
<style type="text/css">
	.st0{enable-background:new    ;}
	.st1{fill:#FFFFFF;}
	.st2{fill:#FBA419;}
</style>
<g class="st0">
	<path class="st1" d="M29,0v44.7h-5.1c-1.1,0-1.7-0.5-2-1.4l-0.7-2.7c-0.6,0.7-1.3,1.3-2,1.9c-0.7,0.6-1.4,1-2.2,1.5
		c-0.8,0.4-1.7,0.7-2.6,0.9c-0.9,0.2-1.9,0.3-3,0.3c-1.7,0-3.2-0.4-4.6-1c-1.4-0.7-2.6-1.7-3.6-3.1c-1-1.4-1.8-3-2.4-5
		c-0.6-2-0.8-4.2-0.8-6.7C0,27.1,0.3,25,0.9,23c0.6-2,1.5-3.7,2.7-5.1c1.2-1.4,2.6-2.6,4.2-3.4c1.6-0.8,3.5-1.2,5.5-1.2
		c1.7,0,3.1,0.3,4.2,0.8c1.1,0.5,2.2,1.2,3.1,2V0H29z M20.7,21.9C19.9,21,19,20.3,18.1,20c-0.9-0.4-1.9-0.5-2.9-0.5
		c-1,0-1.9,0.2-2.7,0.6c-0.8,0.4-1.5,1-2.1,1.8s-1,1.8-1.4,3.1c-0.3,1.3-0.5,2.8-0.5,4.5c0,1.7,0.1,3.2,0.4,4.4
		c0.3,1.2,0.6,2.2,1.1,2.9c0.5,0.7,1.1,1.3,1.8,1.6c0.7,0.3,1.5,0.5,2.3,0.5c1.5,0,2.7-0.3,3.7-0.9c1-0.6,1.9-1.4,2.8-2.5V21.9z"/>
	<path class="st1" d="M45.3,5c0,0.7-0.1,1.3-0.4,2c-0.3,0.6-0.7,1.1-1.1,1.6s-1,0.8-1.6,1.1c-0.6,0.3-1.3,0.4-2,0.4
		c-0.7,0-1.3-0.1-1.9-0.4C37.6,9.4,37,9,36.6,8.6c-0.5-0.5-0.8-1-1.1-1.6c-0.3-0.6-0.4-1.3-0.4-2s0.1-1.4,0.4-2
		c0.3-0.6,0.6-1.1,1.1-1.6c0.5-0.5,1-0.8,1.6-1.1C38.8,0.1,39.4,0,40.1,0c0.7,0,1.4,0.1,2,0.4c0.6,0.3,1.2,0.6,1.6,1.1
		s0.8,1,1.1,1.6C45.2,3.7,45.3,4.3,45.3,5z M44.3,13.8v30.9h-8.3V13.8H44.3z"/>
	<path class="st1" d="M79,14.8v3c0,0.5-0.1,0.9-0.4,1.1c-0.3,0.3-0.7,0.5-1.3,0.6l-2.5,0.5c0.3,1,0.5,2,0.5,3.1
		c0,1.5-0.3,2.9-0.9,4.2s-1.5,2.3-2.6,3.2c-1.1,0.9-2.4,1.5-3.9,2s-3.1,0.7-4.9,0.7c-1.1,0-2.1-0.1-3.1-0.3
		c-0.8,0.5-1.3,1.1-1.3,1.7c0,0.6,0.3,1,0.9,1.3c0.6,0.3,1.3,0.4,2.3,0.6c0.9,0.1,2,0.2,3.2,0.2c1.2,0,2.4,0.1,3.6,0.2
		s2.4,0.3,3.6,0.5c1.2,0.3,2.3,0.7,3.2,1.2c0.9,0.6,1.7,1.3,2.3,2.3c0.6,0.9,0.9,2.2,0.9,3.6c0,1.4-0.3,2.7-1,4
		c-0.7,1.3-1.7,2.5-3,3.5s-2.9,1.8-4.8,2.5c-1.9,0.6-4,0.9-6.4,0.9c-2.4,0-4.4-0.2-6.2-0.7c-1.8-0.5-3.2-1.1-4.4-1.8
		c-1.2-0.8-2-1.6-2.6-2.6c-0.6-1-0.8-2-0.8-3.1c0-1.4,0.4-2.6,1.3-3.5s2-1.7,3.5-2.3c-0.8-0.4-1.4-1-1.9-1.7
		c-0.5-0.7-0.7-1.6-0.7-2.8c0-0.9,0.3-1.9,1-2.9c0.7-1,1.7-1.9,3.1-2.6c-1.6-0.8-2.8-2-3.8-3.4c-0.9-1.4-1.4-3.1-1.4-4.9
		c0-1.5,0.3-2.9,0.9-4.2c0.6-1.2,1.5-2.3,2.6-3.2c1.1-0.9,2.4-1.5,4-2c1.5-0.5,3.2-0.7,4.9-0.7c2.6,0,5,0.5,7,1.6H79z M70.8,46
		c0-0.5-0.2-1-0.5-1.3c-0.3-0.3-0.8-0.6-1.4-0.8s-1.2-0.3-2-0.4c-0.8-0.1-1.6-0.2-2.5-0.2c-0.9,0-1.8-0.1-2.7-0.1
		c-0.9,0-1.9-0.1-2.8-0.2c-0.7,0.4-1.3,0.9-1.7,1.5s-0.7,1.2-0.7,1.9c0,0.5,0.1,1,0.3,1.4c0.2,0.4,0.6,0.8,1.2,1.1
		c0.5,0.3,1.2,0.5,2.1,0.7c0.9,0.2,2,0.3,3.3,0.3c1.4,0,2.5-0.1,3.5-0.3c0.9-0.2,1.7-0.4,2.3-0.8s1-0.7,1.2-1.2
		C70.6,47.1,70.8,46.6,70.8,46z M62.9,28.1c1.7,0,3-0.4,3.8-1.3c0.8-0.9,1.2-2,1.2-3.3c0-1.4-0.4-2.5-1.2-3.3S64.6,19,62.9,19
		c-1.7,0-3,0.4-3.8,1.2C58.4,21,58,22.1,58,23.5c0,1.3,0.4,2.4,1.2,3.3S61.3,28.1,62.9,28.1z"/>
	<path class="st1" d="M92.8,5c0,0.7-0.1,1.3-0.4,2c-0.3,0.6-0.7,1.1-1.1,1.6s-1,0.8-1.6,1.1c-0.6,0.3-1.3,0.4-2,0.4
		c-0.7,0-1.3-0.1-1.9-0.4c-0.6-0.3-1.1-0.6-1.6-1.1c-0.5-0.5-0.8-1-1.1-1.6c-0.3-0.6-0.4-1.3-0.4-2s0.1-1.4,0.4-2
		c0.3-0.6,0.6-1.1,1.1-1.6c0.5-0.5,1-0.8,1.6-1.1C86.3,0.1,86.9,0,87.6,0c0.7,0,1.4,0.1,2,0.4c0.6,0.3,1.2,0.6,1.6,1.1
		s0.8,1,1.1,1.6C92.7,3.7,92.8,4.3,92.8,5z M91.8,13.8v30.9h-8.3V13.8H91.8z"/>
	<path class="st1" d="M109.6,45.2c-1.4,0-2.6-0.2-3.7-0.6s-2-1-2.7-1.8c-0.7-0.8-1.3-1.7-1.7-2.8c-0.4-1.1-0.6-2.3-0.6-3.7V19.8H98
		c-0.4,0-0.8-0.1-1.1-0.4c-0.3-0.3-0.5-0.7-0.5-1.3v-3.2l5-0.9l1.7-8c0.2-0.9,0.8-1.3,1.8-1.3h4.3V14h8v5.8h-8v16.1
		c0,0.9,0.2,1.5,0.6,2c0.4,0.5,1,0.8,1.8,0.8c0.4,0,0.7,0,1-0.1c0.3-0.1,0.5-0.2,0.7-0.3c0.2-0.1,0.4-0.2,0.6-0.3
		c0.2-0.1,0.3-0.1,0.5-0.1c0.2,0,0.4,0.1,0.6,0.2c0.2,0.1,0.3,0.3,0.5,0.6l2.5,4c-1.1,0.9-2.4,1.6-3.9,2
		C112.6,45,111.1,45.2,109.6,45.2z"/>
	<path class="st1" d="M120.9,18.1c1.8-1.6,3.8-2.9,6-3.7c2.2-0.8,4.6-1.2,7.1-1.2c1.8,0,3.5,0.3,4.9,0.9c1.4,0.6,2.7,1.4,3.7,2.5
		s1.8,2.3,2.3,3.8s0.8,3.1,0.8,4.9v19.4H142c-0.8,0-1.4-0.1-1.8-0.3c-0.4-0.2-0.7-0.7-1-1.4l-0.7-2c-0.8,0.7-1.5,1.3-2.3,1.8
		c-0.7,0.5-1.5,1-2.3,1.3c-0.8,0.4-1.6,0.6-2.5,0.8s-1.9,0.3-3,0.3c-1.4,0-2.6-0.2-3.7-0.5c-1.1-0.4-2.1-0.9-2.9-1.6
		c-0.8-0.7-1.4-1.6-1.9-2.7c-0.4-1.1-0.7-2.3-0.7-3.7c0-1.1,0.3-2.3,0.9-3.4c0.6-1.1,1.6-2.2,3-3.1c1.4-0.9,3.3-1.7,5.6-2.3
		c2.3-0.6,5.3-1,8.8-1v-1.6c0-1.9-0.4-3.4-1.2-4.3s-2-1.4-3.5-1.4c-1.1,0-2.1,0.1-2.8,0.4c-0.8,0.3-1.4,0.6-2,0.9s-1.1,0.6-1.6,0.9
		c-0.5,0.3-1.1,0.4-1.7,0.4c-0.6,0-1.1-0.1-1.5-0.4s-0.7-0.6-1-1L120.9,18.1z M137.7,31.8c-2,0.1-3.7,0.3-5,0.5s-2.4,0.6-3.2,1
		s-1.3,0.9-1.7,1.4c-0.3,0.5-0.5,1.1-0.5,1.7c0,1.2,0.3,2.1,1,2.6s1.6,0.8,2.8,0.8c1.4,0,2.6-0.2,3.6-0.7c1-0.5,2-1.3,3-2.3V31.8z"
		/>
	<path class="st1" d="M160.6,0v44.7h-8.3V0H160.6z"/>
</g>
<path class="st2" d="M172.6,30.8c3.9,0,7,3.1,7,7s-3.1,7-7,7s-7-3.1-7-7S168.8,30.8,172.6,30.8z"/>
</svg>
