<?xml version="1.0" encoding="utf-8"?>
<!-- Generator: Adobe Illustrator 20.1.0, SVG Export Plug-In . SVG Version: 6.00 Build 0)  -->
<svg version="1.1" id="icons" xmlns="http://www.w3.org/2000/svg" xmlns:xlink="http://www.w3.org/1999/xlink" x="0px" y="0px"
	 viewBox="0 0 54 42" style="enable-background:new 0 0 54 42;" xml:space="preserve">
<style type="text/css">
	.st0{fill:#FC9E20;}
</style>
<g>
	<path class="st0" d="M49,0H5C2.2,0,0,2.2,0,5v32c0,2.8,2.2,5,5,5h44c2.8,0,5-2.2,5-5V5C54,2.2,51.8,0,49,0z M52,37c0,1.7-1.3,3-3,3
		H5c-1.7,0-3-1.3-3-3V5c0-1.7,1.3-3,3-3h44c1.7,0,3,1.3,3,3V37z"/>
	<path class="st0" d="M48.3,4.2l-19,16.4c-1.3,1.1-3.5,1.1-4.7,0L5.7,4.2c-0.4-0.4-1-0.3-1.4,0.1c-0.4,0.4-0.3,1,0.1,1.4l19,16.4
		c1,0.9,2.3,1.3,3.7,1.3s2.7-0.4,3.7-1.3l19-16.4c0.4-0.4,0.5-1,0.1-1.4C49.4,3.9,48.8,3.9,48.3,4.2z"/>
</g>
</svg>
