<?xml version="1.0" encoding="utf-8"?>
<!-- Generator: Adobe Illustrator 23.0.2, SVG Export Plug-In . SVG Version: 6.00 Build 0)  -->
<svg version="1.1" id="Layer_1" xmlns="http://www.w3.org/2000/svg" xmlns:xlink="http://www.w3.org/1999/xlink" x="0px" y="0px"
	 viewBox="0 0 511 479.1" style="enable-background:new 0 0 511 479.1;" xml:space="preserve">
<style type="text/css">
	.st0{fill:#FFFFFF;}
</style>
<path class="st0" d="M15,479.1h209.5c0.9,0,7-0.8,9-1.8l84.7-42.3c1.3-0.7,2.8-1.7,3.9-2.8c11.1-11.1,173.8-173.8,184.6-184.6
	c5.8-5.8,5.8-15.3,0-21.2L464.3,184c-5.8-5.8-15.3-5.8-21.2,0c-28.3,28.3-162.9,162.9-184.6,184.6c-1.2,1.2-2.2,2.7-2.8,3.9
	l-38.3,76.6H15c-8.3,0-15,6.7-15,15S6.7,479.1,15,479.1z M273.2,404.5l13,13l-25.9,13L273.2,404.5z M411.3,258.1l21.2,21.2
	l-121,121.1l-21.2-21.2L411.3,258.1z M453.7,215.8l21.2,21.2l-21.2,21.2L432.5,237L453.7,215.8z"/>
<path class="st0" d="M44.9,239.5h145.5l55.5,55.5c4.3,4.3,10.7,5.6,16.3,3.2c5.6-2.3,9.2-7.8,9.2-13.8v-44.9h44.9
	c24.8,0,44.9-20.1,44.9-44.9V44.9c0-24.8-20.1-44.9-44.9-44.9H44.9C20.1,0,0,20.1,0,44.9v149.7C0,219.4,20.1,239.5,44.9,239.5z
	 M29.9,44.9c0-8.3,6.7-15,15-15h271.5c8.3,0,15,6.7,15,15v149.7c0,8.3-6.7,15-15,15h-59.9c-8.3,0-15,6.7-15,15v23.7L207.2,214
	c-2.8-2.8-6.6-4.4-10.6-4.4H44.9c-8.3,0-15-6.7-15-15V44.9z"/>
<path class="st0" d="M89.8,149.7c16.5,0,29.9-13.4,29.9-29.9s-13.4-29.9-29.9-29.9s-29.9,13.4-29.9,29.9S73.3,149.7,89.8,149.7z"/>
<path class="st0" d="M181.6,149.7c16.5,0,29.9-13.4,29.9-29.9s-13.4-29.9-29.9-29.9s-29.9,13.4-29.9,29.9S165.1,149.7,181.6,149.7z"
	/>
<path class="st0" d="M271.5,149.7c16.5,0,29.9-13.4,29.9-29.9S288,89.8,271.5,89.8s-29.9,13.4-29.9,29.9S255,149.7,271.5,149.7z"/>
</svg>
