<?xml version="1.0" encoding="utf-8"?>
<!-- Generator: Adobe Illustrator 23.0.2, SVG Export Plug-In . SVG Version: 6.00 Build 0)  -->
<svg version="1.1" id="Capa_1" xmlns="http://www.w3.org/2000/svg" xmlns:xlink="http://www.w3.org/1999/xlink" x="0px" y="0px"
	 viewBox="0 0 512 512" style="enable-background:new 0 0 512 512;" xml:space="preserve">
<style type="text/css">
	.st0{fill:#FFFFFF;}
</style>
<g>
	<g>
		<path class="st0" d="M462.8,247.8C417.7,175.3,340.4,132,256,132S94.3,175.3,49.2,247.8c-1.6,2.6-1.6,5.9,0,8.5
			C94.3,328.7,171.6,372,256,372s161.7-43.3,206.8-115.8C464.4,253.6,464.4,250.4,462.8,247.8z M256,356c-77.2,0-148-38.8-190.5-104
			c42.5-65.2,113.3-104,190.5-104s148,38.8,190.5,104C404.1,317.2,333.2,356,256,356z"/>
	</g>
</g>
<g>
	<g>
		<path class="st0" d="M256,164c-48.5,0-88,39.5-88,88s39.5,88,88,88s88-39.5,88-88S304.5,164,256,164z M256,324
			c-39.7,0-72-32.3-72-72s32.3-72,72-72s72,32.3,72,72S295.7,324,256,324z"/>
	</g>
</g>
<g>
	<g>
		<path class="st0" d="M256,220c-17.6,0-32,14.4-32,32s14.4,32,32,32s32-14.4,32-32S273.6,220,256,220z M256,268
			c-8.8,0-16-7.2-16-16s7.2-16,16-16s16,7.2,16,16S264.8,268,256,268z"/>
	</g>
</g>
<g>
	<g>
		<path class="st0" d="M504,108H392c-4.4,0-8,3.6-8,8s3.6,8,8,8h112c4.4,0,8-3.6,8-8S508.4,108,504,108z"/>
	</g>
</g>
<g>
	<g>
		<path class="st0" d="M424,76h-32c-4.4,0-8,3.6-8,8s3.6,8,8,8h32c4.4,0,8-3.6,8-8S428.4,76,424,76z"/>
	</g>
</g>
<g>
	<g>
		<path class="st0" d="M504,44h-24c-4.4,0-8,3.6-8,8s3.6,8,8,8h24c4.4,0,8-3.6,8-8S508.4,44,504,44z"/>
	</g>
</g>
<g>
	<g>
		<path class="st0" d="M504,76h-48c-4.4,0-8,3.6-8,8s3.6,8,8,8h48c4.4,0,8-3.6,8-8S508.4,76,504,76z"/>
	</g>
</g>
<g>
	<g>
		<path class="st0" d="M424,12h-32c-4.4,0-8,3.6-8,8s3.6,8,8,8h32c4.4,0,8-3.6,8-8S428.4,12,424,12z"/>
	</g>
</g>
<g>
	<g>
		<path class="st0" d="M504,12h-48c-4.4,0-8,3.6-8,8s3.6,8,8,8h48c4.4,0,8-3.6,8-8S508.4,12,504,12z"/>
	</g>
</g>
<g>
	<g>
		<path class="st0" d="M448,44h-56c-4.4,0-8,3.6-8,8s3.6,8,8,8h56c4.4,0,8-3.6,8-8S452.4,44,448,44z"/>
	</g>
</g>
<g>
	<g>
		<path class="st0" d="M336,244h-56c-4.4,0-8,3.6-8,8c0,4.4,3.6,8,8,8h56c4.4,0,8-3.6,8-8S340.4,244,336,244z"/>
	</g>
</g>
<g>
	<g>
		<path class="st0" d="M256,308c-4.4,0-8,3.6-8,8v16c0,4.4,3.6,8,8,8c4.4,0,8-3.6,8-8v-16C264,311.6,260.4,308,256,308z"/>
	</g>
</g>
<g>
	<g>
		<path class="st0" d="M256,164c-4.4,0-8,3.6-8,8v16c0,4.4,3.6,8,8,8c4.4,0,8-3.6,8-8v-16C264,167.6,260.4,164,256,164z"/>
	</g>
</g>
<g>
	<g>
		<path class="st0" d="M318.2,302.9l-11.3-11.3c-3.1-3.1-8.2-3.1-11.3,0c-3.1,3.1-3.1,8.2,0,11.3l11.3,11.3c1.6,1.6,3.6,2.3,5.7,2.3
			s4.1-0.8,5.7-2.3C321.4,311.1,321.4,306,318.2,302.9z"/>
	</g>
</g>
<g>
	<g>
		<path class="st0" d="M216.4,201.1l-11.3-11.3c-3.1-3.1-8.2-3.1-11.3,0s-3.1,8.2,0,11.3l11.3,11.3c1.6,1.6,3.6,2.3,5.7,2.3
			s4.1-0.8,5.7-2.3C219.5,209.3,219.5,204.2,216.4,201.1z"/>
	</g>
</g>
<g>
	<g>
		<path class="st0" d="M232,244h-56c-4.4,0-8,3.6-8,8c0,4.4,3.6,8,8,8h56c4.4,0,8-3.6,8-8S236.4,244,232,244z"/>
	</g>
</g>
<g>
	<g>
		<path class="st0" d="M397.7,110.4c-3.1-3.1-8.2-3.1-11.3,0l-90.7,90.7c-3.1,3.1-3.1,8.2,0,11.3c1.6,1.6,3.6,2.3,5.7,2.3
			s4.1-0.8,5.7-2.3l90.7-90.7C400.8,118.5,400.8,113.5,397.7,110.4z"/>
	</g>
</g>
<g>
	<g>
		<path class="st0" d="M216.4,291.6c-3.1-3.1-8.2-3.1-11.3,0l-90.8,90.8c-3.1,3.1-3.1,8.2,0,11.3c1.6,1.6,3.6,2.3,5.7,2.3
			s4.1-0.8,5.7-2.3l90.8-90.8C219.5,299.8,219.5,294.7,216.4,291.6z"/>
	</g>
</g>
<g>
	<g>
		<path class="st0" d="M120,380H8c-4.4,0-8,3.6-8,8s3.6,8,8,8h112c4.4,0,8-3.6,8-8S124.4,380,120,380z"/>
	</g>
</g>
<g>
	<g>
		<path class="st0" d="M120,412H8c-4.4,0-8,3.6-8,8v72c0,4.4,3.6,8,8,8h112c4.4,0,8-3.6,8-8v-72C128,415.6,124.4,412,120,412z
			 M112,484H16v-56h96V484z"/>
	</g>
</g>
<g>
	<g>
		<path class="st0" d="M96,460H32c-4.4,0-8,3.6-8,8s3.6,8,8,8h64c4.4,0,8-3.6,8-8S100.4,460,96,460z"/>
	</g>
</g>
<g>
	<g>
		<path class="st0" d="M32,460c-4.4,0-8,3.6-8,8v24c0,4.4,3.6,8,8,8s8-3.6,8-8v-24C40,463.6,36.4,460,32,460z"/>
	</g>
</g>
<g>
	<g>
		<path class="st0" d="M96,460c-4.4,0-8,3.6-8,8v24c0,4.4,3.6,8,8,8s8-3.6,8-8v-24C104,463.6,100.4,460,96,460z"/>
	</g>
</g>
<g>
	<g>
		<path class="st0" d="M168,20H96c-4.4,0-8,3.6-8,8v72c0,4.4,3.6,8,8,8h72c4.4,0,8-3.6,8-8V28C176,23.6,172.4,20,168,20z M160,92
			h-56V36h56V92z"/>
	</g>
</g>
<g>
	<g>
		<path class="st0" d="M72,124H40c-4.4,0-8,3.6-8,8v32c0,4.4,3.6,8,8,8h32c4.4,0,8-3.6,8-8v-32C80,127.6,76.4,124,72,124z M64,156
			H48v-16h16V156z"/>
	</g>
</g>
<g>
	<g>
		<path class="st0" d="M248,52h-24c-4.4,0-8,3.6-8,8v24c0,4.4,3.6,8,8,8h24c4.4,0,8-3.6,8-8V60C256,55.6,252.4,52,248,52z M240,76
			h-8v-8h8V76z"/>
	</g>
</g>
<g>
	<g>
		<path class="st0" d="M416,396h-72c-4.4,0-8,3.6-8,8v72c0,4.4,3.6,8,8,8h72c4.4,0,8-3.6,8-8v-72C424,399.6,420.4,396,416,396z
			 M408,468h-56v-56h56V468z"/>
	</g>
</g>
<g>
	<g>
		<path class="st0" d="M472,332h-32c-4.4,0-8,3.6-8,8v32c0,4.4,3.6,8,8,8h32c4.4,0,8-3.6,8-8v-32C480,335.6,476.4,332,472,332z
			 M464,364h-16v-16h16V364z"/>
	</g>
</g>
<g>
	<g>
		<path class="st0" d="M288,412h-24c-4.4,0-8,3.6-8,8v24c0,4.4,3.6,8,8,8h24c4.4,0,8-3.6,8-8v-24C296,415.6,292.4,412,288,412z
			 M280,436h-8v-8h8V436z"/>
	</g>
</g>
</svg>
