<?xml version="1.0" encoding="utf-8"?>
<!-- Generator: Adobe Illustrator 20.1.0, SVG Export Plug-In . SVG Version: 6.00 Build 0)  -->
<svg version="1.1" id="icons" xmlns="http://www.w3.org/2000/svg" xmlns:xlink="http://www.w3.org/1999/xlink" x="0px" y="0px"
	 viewBox="0 0 46.2 54" style="enable-background:new 0 0 46.2 54;" xml:space="preserve">
<style type="text/css">
	.st0{fill:#FFFFFF;}
</style>
<path class="st0" d="M39.9,26.1c-0.4-0.6-0.4-1.6,0-2.2l5.8-8.7c0.5-0.8,0.6-1.6,0.2-2.2c-0.3-0.6-1.1-1-2-1H32c-0.6,0-1,0.4-1,1
	s0.4,1,1,1h12c0,0,0.1,0,0.1,0c0,0,0,0.1-0.1,0.1l-5.8,8.7c-0.8,1.2-0.8,3.2,0,4.4l5.8,8.7c0,0,0,0.1,0.1,0.1c0,0-0.1,0-0.1,0H23
	l4-3c1.1-0.9,2-2.6,2-4V6c0-1.7-1.3-3-3-3H2V1c0-0.6-0.4-1-1-1C0.4,0,0,0.4,0,1v52c0,0.6,0.4,1,1,1c0.6,0,1-0.4,1-1V31h20
	c0.6,0,1-0.4,1-1s-0.4-1-1-1H2V5h24c0.6,0,1,0.4,1,1v23c0,0.8-0.6,1.9-1.2,2.4L21,35c-1.1,0.8-1,1.6-0.9,2c0.1,0.4,0.5,1,1.9,1h22
	c0.9,0,1.6-0.4,2-1c0.3-0.6,0.3-1.4-0.2-2.2L39.9,26.1z"/>
</svg>
