<?xml version="1.0" encoding="utf-8"?>
<!-- Generator: Adobe Illustrator 20.1.0, SVG Export Plug-In . SVG Version: 6.00 Build 0)  -->
<svg version="1.1" id="icons" xmlns="http://www.w3.org/2000/svg" xmlns:xlink="http://www.w3.org/1999/xlink" x="0px" y="0px"
	 viewBox="0 0 36 54" style="enable-background:new 0 0 36 54;" xml:space="preserve">
<style type="text/css">
	.st0{fill:#FC9E20;}
</style>
<g>
	<path class="st0" d="M31,0H5C2.2,0,0,2.2,0,5v44c0,2.8,2.2,5,5,5h26c2.8,0,5-2.2,5-5V5C36,2.2,33.8,0,31,0z M2,9h32v31H2V9z M5,2
		h26c1.7,0,3,1.3,3,3v2H2V5C2,3.3,3.3,2,5,2z M31,52H5c-1.7,0-3-1.3-3-3v-7h32v7C34,50.7,32.7,52,31,52z"/>
	<path class="st0" d="M20,46h-4c-0.6,0-1,0.4-1,1s0.4,1,1,1h4c0.6,0,1-0.4,1-1S20.6,46,20,46z"/>
</g>
</svg>
