<?xml version="1.0" encoding="utf-8"?>
<!-- Generator: Adobe Illustrator 23.0.2, SVG Export Plug-In . SVG Version: 6.00 Build 0)  -->
<svg version="1.1" id="Capa_1" xmlns="http://www.w3.org/2000/svg" xmlns:xlink="http://www.w3.org/1999/xlink" x="0px" y="0px"
	 viewBox="0 0 480 352" style="enable-background:new 0 0 480 352;" xml:space="preserve">
<style type="text/css">
	.st0{fill:#FFFFFF;}
</style>
<g>
	<g>
		<path class="st0" d="M392,304h-8v-32h-16v32H32V104c0-4.4,3.6-8,8-8h280V80H40c-13.3,0-24,10.7-24,24v200H8c-4.4,0-8,3.6-8,8v24
			c0,8.8,7.2,16,16,16h368c8.8,0,16-7.2,16-16v-24C400,307.6,396.4,304,392,304z M384,336H16v-16h144c0,4.4,3.6,8,8,8h64
			c4.4,0,8-3.6,8-8h144V336z"/>
	</g>
</g>
<g>
	<g>
		<path class="st0" d="M64,272V128h256v-16H64c-8.8,0-16,7.2-16,16v152c0,4.4,3.6,8,8,8h288c4.4,0,8-3.6,8-8v-8H64z"/>
	</g>
</g>
<g>
	<g>
		<rect x="192" y="192" class="st0" width="16" height="16"/>
	</g>
</g>
<g>
	<g>
		<rect x="240" y="192" class="st0" width="16" height="16"/>
	</g>
</g>
<g>
	<g>
		<rect x="144" y="192" class="st0" width="16" height="16"/>
	</g>
</g>
<g>
	<g>
		<path class="st0" d="M456,0h-96c-13.3,0-24,10.7-24,24v208c0,13.3,10.7,24,24,24h96c13.3,0,24-10.7,24-24V24
			C480,10.7,469.3,0,456,0z M464,232c0,4.4-3.6,8-8,8h-96c-4.4,0-8-3.6-8-8v-24h112V232z M464,192H352V48h112V192z M464,32H352v-8
			c0-4.4,3.6-8,8-8h96c4.4,0,8,3.6,8,8V32z"/>
	</g>
</g>
<g>
	<g>
		<rect x="400" y="216" class="st0" width="16" height="16"/>
	</g>
</g>
<g>
	<g>
		<rect x="400" y="104" class="st0" width="16" height="16"/>
	</g>
</g>
<g>
	<g>
		<rect x="432" y="104" class="st0" width="16" height="16"/>
	</g>
</g>
<g>
	<g>
		<rect x="368" y="104" class="st0" width="16" height="16"/>
	</g>
</g>
</svg>
