<?xml version="1.0" encoding="utf-8"?>
<!-- Generator: Adobe Illustrator 23.0.2, SVG Export Plug-In . SVG Version: 6.00 Build 0)  -->
<svg version="1.1" id="Capa_1" xmlns="http://www.w3.org/2000/svg" xmlns:xlink="http://www.w3.org/1999/xlink" x="0px" y="0px"
	 viewBox="0 0 337.1 337.1" style="enable-background:new 0 0 337.1 337.1;" xml:space="preserve">
<style type="text/css">
	.st0{fill:#5300A6;}
	.st1{fill:#FFFFFF;}
</style>
<g>
	<path class="st0" d="M168.5,0C75.6,0,0,75.6,0,168.5S75.6,337,168.5,337S337,261.4,337,168.5C337.1,75.6,261.5,0,168.5,0z"/>
</g>
<path class="st1" d="M271.3,224.3c-2.4,2.4-5.6,3.6-8.7,3.6c-3.2,0-6.3-1.2-8.7-3.6l-85.4-85.4l-85.4,85.4c-4.8,4.8-12.6,4.8-17.4,0
	s-4.8-12.6,0-17.4l94.2-94.1c4.8-4.8,12.6-4.8,17.4,0l94.2,94.1C276.1,211.7,276.1,219.5,271.3,224.3z"/>
</svg>
